# xmcd
#
# Track frame offsets:
#	150
#	13747
#	24812
#	36967
#	49602
#	70367
#	89922
#	102920
#	121125
#	134272
#	153730
#	168667
#	188737
#	207785
#
# Disc length: 3029 seconds
#
# Revision: 0
# Processed by: cddbd v1.5.2PL0 Copyright (c) Steve Scherf et al.
# Submitted via: dBpowerAMP V4.0
#
DISCID=bf0bd30e
DTITLE=Kickshiker Band - Kickshikin'
DYEAR=2010
DGENRE=Country
TTITLE0=01 Kickshikin'
TTITLE1=02 Blue
TTITLE2=03 You're Still on My Mind
TTITLE3=04 Bubbles in My Beer
TTITLE4=05 Waltz of the Angels
TTITLE5=06 Blind Love
TTITLE6=07 If It Weren't for Country Music
TTITLE7=08 Don't Toss Us Away
TTITLE8=09 Order One for Me
TTITLE9=10 Crazy
TTITLE10=11 Good Lookin' Woman
TTITLE11=12 It's Your World Now
TTITLE12=13 Night Life
TTITLE13=14 Let's Go Spend Your Money Honey
EXTD=
EXTT0=
EXTT1=
EXTT2=
EXTT3=
EXTT4=
EXTT5=
EXTT6=
EXTT7=
EXTT8=
EXTT9=
EXTT10=
EXTT11=
EXTT12=
EXTT13=
PLAYORDER=
